<svg width="142" height="79" viewBox="0 0 142 79" fill="none" xmlns="http://www.w3.org/2000/svg">
<path d="M54.1113 52.4134C54.1036 52.2755 54.1296 51.9241 54.1892 51.3594C54.2636 50.7883 54.4372 50.0236 54.7101 49.0655L55.2568 47.1313C55.4827 46.3261 55.5311 45.5853 55.4019 44.9088C55.2727 44.2322 55.0092 43.6188 54.6113 43.0685C54.224 42.5223 53.7256 42.0424 53.1161 41.6286C52.5107 41.2042 51.848 40.849 51.128 40.5629L42.9803 37.3261L39.4042 46.5706L35.8307 45.151L44.6599 22.3265L58.0646 27.6518C59.1658 28.0893 60.1782 28.6141 61.1019 29.2262C62.0403 29.8319 62.7993 30.538 63.3791 31.3445C63.9694 32.1552 64.3299 33.0707 64.4605 34.0911C64.6057 35.105 64.4338 36.2442 63.9447 37.5086C63.5747 38.465 63.1365 39.2348 62.6299 39.8181C62.1274 40.3908 61.5686 40.8247 60.9537 41.1198C60.3428 41.4042 59.6854 41.5721 58.9815 41.6234C58.2776 41.6748 57.5445 41.6594 56.7822 41.5772C57.1535 41.786 57.5224 42.0797 57.889 42.4582C58.2662 42.841 58.5705 43.3174 58.802 43.8874C59.0481 44.4511 59.1941 45.1159 59.2398 45.8818C59.2897 46.6372 59.1802 47.4886 58.9114 48.4361L58.3057 50.4756C58.078 51.3168 57.9335 52.0378 57.8721 52.6386C57.8213 53.2436 57.8012 53.6586 57.8119 53.8835L54.1113 52.4134ZM53.0169 38.0954C53.7899 38.4025 54.5304 38.6354 55.2386 38.7942C55.9509 38.9423 56.6102 38.959 57.2164 38.8444C57.8374 38.7233 58.3977 38.4433 58.8973 38.0043C59.3969 37.5653 59.8194 36.8995 60.1646 36.007C60.4853 35.1781 60.5919 34.4604 60.4845 33.8539C60.3877 33.2515 60.1504 32.7282 59.7725 32.2838C59.3947 31.8395 58.9131 31.4582 58.3278 31.1398C57.7424 30.8215 57.1268 30.534 56.4809 30.2774L47.1421 26.5673L44.0593 34.5368L53.0169 38.0954Z" fill="white"/>
<path d="M72.1255 32V10.6377H61.3418V7.52734H86.7544V10.6377H76.0049V32H72.1255Z" fill="white"/>
<path d="M120.189 24.0703C119.836 25.5173 119.255 26.7819 118.446 27.8643C117.649 28.9466 116.675 29.8467 115.524 30.5645C114.385 31.2822 113.091 31.8177 111.645 32.1709C110.198 32.5241 108.648 32.7007 106.996 32.7007C104.797 32.7007 102.786 32.3931 100.963 31.7778C99.1519 31.1626 97.5967 30.2967 96.2979 29.1802C94.999 28.0522 93.9907 26.6965 93.2729 25.1128C92.5666 23.5291 92.2134 21.7632 92.2134 19.8149C92.2134 17.8667 92.5723 16.0951 93.29 14.5C94.0078 12.8936 95.0104 11.5264 96.2979 10.3984C97.5967 9.25911 99.1462 8.38184 100.946 7.7666C102.746 7.13997 104.735 6.82666 106.911 6.82666C108.585 6.82666 110.152 7.00326 111.61 7.35645C113.069 7.70964 114.373 8.24512 115.524 8.96289C116.675 9.68066 117.649 10.5807 118.446 11.6631C119.255 12.734 119.836 13.993 120.189 15.4399L116.242 15.7646C115.957 14.6367 115.513 13.7025 114.909 12.9619C114.305 12.21 113.593 11.6118 112.772 11.1675C111.952 10.7231 111.052 10.4098 110.072 10.2275C109.092 10.0452 108.078 9.9541 107.03 9.9541C105.481 9.9541 104.051 10.1763 102.741 10.6206C101.431 11.0649 100.297 11.7087 99.3398 12.5518C98.3828 13.3835 97.6366 14.4032 97.1011 15.6108C96.5656 16.8185 96.2979 18.1857 96.2979 19.7124C96.2979 21.2733 96.5656 22.6632 97.1011 23.8823C97.6366 25.1014 98.3885 26.1325 99.3569 26.9756C100.325 27.8187 101.482 28.4624 102.826 28.9067C104.182 29.3511 105.669 29.5732 107.287 29.5732C108.278 29.5732 109.246 29.4821 110.192 29.2998C111.149 29.1061 112.026 28.7871 112.824 28.3428C113.633 27.887 114.333 27.2889 114.926 26.5483C115.53 25.7964 115.968 24.8678 116.242 23.7627L120.189 24.0703Z" fill="white"/>
<path d="M128.598 32V27.4541H132.477V32H128.598Z" fill="white"/>
<path d="M24.9341 32V20.9941H7.43408V32H3.5376V7.52734H7.43408V17.918H24.9341V7.52734H28.8306V32H24.9341Z" fill="white"/>
</svg>
