<svg width="100" height="100" viewBox="0 0 100 100" fill="none" xmlns="http://www.w3.org/2000/svg">
<path d="M52.6888 3.03309C52.6888 1.35797 51.4853 0 50.0007 0C48.5161 0 47.3125 1.35797 47.3125 3.03309V31.3419C47.3125 33.017 48.5161 34.375 50.0007 34.375C51.4853 34.375 52.6888 33.017 52.6888 31.3419V3.03309Z" fill="white"/>
<path d="M24.1882 18.5564C25.7286 17.44 26.0393 15.3304 24.8821 13.8443C23.725 12.3582 21.5382 12.0585 19.9979 13.1748C7.86261 21.9694 0 35.9797 0 51.7629C0 78.4037 22.3858 100 50 100C77.6144 100 100 78.4037 100 51.7629C100 36.097 91.9433 21.9816 80.0256 13.192C78.4949 12.0632 76.3056 12.3451 75.1358 13.8217C73.9656 15.2983 74.2577 17.4104 75.7884 18.5392C86.1056 26.1484 93.0233 38.3424 93.0233 51.7629C93.0233 74.6861 73.7609 93.2692 50 93.2692C26.2389 93.2692 6.97674 74.6861 6.97674 51.7629C6.97674 38.1868 13.7309 26.1348 24.1882 18.5564Z" fill="white"/>
</svg>
