<svg width="50" height="50" viewBox="0 0 50 50" fill="none" xmlns="http://www.w3.org/2000/svg">
<g clip-path="url(#clip0_182_144)">
<path d="M25 50C38.8071 50 50 38.8071 50 25C50 11.1929 38.8071 0 25 0C11.1929 0 0 11.1929 0 25C0 38.8071 11.1929 50 25 50Z" fill="url(#paint0_linear_182_144)"/>
<path d="M9.31041 26.2229C12.2329 24.6131 15.4952 23.2696 18.5433 21.9192C23.7873 19.7073 29.0521 17.5338 34.37 15.5102C35.4046 15.1654 37.2637 14.8283 37.446 16.3617C37.346 18.5321 36.9356 20.6898 36.654 22.8475C35.9392 27.5925 35.1127 32.3213 34.3071 37.0506C34.0294 38.6258 32.056 39.4415 30.7933 38.4333C27.7587 36.3833 24.7008 34.3538 21.705 32.2563C20.7237 31.2592 21.6337 29.8271 22.51 29.115C25.0094 26.6519 27.66 24.5592 30.0287 21.9688C30.6677 20.4258 28.7798 21.7263 28.1571 22.1248C24.7354 24.4827 21.3975 26.9846 17.79 29.0569C15.9473 30.0713 13.7996 29.2044 11.9577 28.6381C10.3062 27.9546 7.88625 27.2656 9.3102 26.2231L9.31041 26.2229Z" fill="white"/>
</g>
<defs>
<linearGradient id="paint0_linear_182_144" x1="33.3354" y1="8.335" x2="20.8354" y2="37.5" gradientUnits="userSpaceOnUse">
<stop stop-color="#37AEE2"/>
<stop offset="1" stop-color="#1E96C8"/>
</linearGradient>
<clipPath id="clip0_182_144">
<rect width="50" height="50" fill="white"/>
</clipPath>
</defs>
</svg>
